<svg width="17" height="16" viewBox="0 0 17 16" fill="none" xmlns="http://www.w3.org/2000/svg">
<g clip-path="url(#clip0_14_369)">
<path fill-rule="evenodd" clip-rule="evenodd" d="M2.45027 6.91303C2.45027 4.51179 4.50976 2.56521 7.05027 2.56521C9.59078 2.56521 11.6503 4.51179 11.6503 6.91303C11.6503 9.31426 9.59078 11.2608 7.05027 11.2608C4.50976 11.2608 2.45027 9.31426 2.45027 6.91303ZM7.05027 0.391296C3.2395 0.391296 0.150269 3.31117 0.150269 6.91303C0.150269 10.5149 3.2395 13.4348 7.05027 13.4348C8.54041 13.4348 9.92023 12.9882 11.0482 12.2291L14.2871 15.2905C14.7362 15.715 15.4644 15.715 15.9134 15.2905C16.3625 14.8661 16.3625 14.1778 15.9134 13.7533L12.6746 10.692C13.4778 9.62586 13.9503 8.32159 13.9503 6.91303C13.9503 3.31117 10.861 0.391296 7.05027 0.391296Z" fill="#666666"/>
</g>
<defs>
<clipPath id="clip0_14_369">
<rect width="16.1" height="15.2174" fill="white" transform="translate(0.150269 0.391296)"/>
</clipPath>
</defs>
</svg>
